<svg viewBox="0 0 200 200" xmlns="http://www.w3.org/2000/svg">
  <!-- 20條從左到右的曲線，彎曲程度更強 -->
  <path d="M 10 10 C 50 70, 0 130, 10 190" fill="none" stroke-width="50"/>
  <path d="M 20 10 C 60 60, 10 140, 20 190" fill="none"  stroke-width="50"/>
  <path d="M 30 10 C 70 80, 20 120, 30 190" fill="none"  stroke-width="50"/>
  <path d="M 40 10 C 80 50, 30 150, 40 190" fill="none"  stroke-width="50"/>
  <path d="M 50 10 C 90 90, 40 110, 50 190" fill="none"  stroke-width="50"/>
  <path d="M 60 10 C 100 40, 50 160, 60 190" fill="none"  stroke-width="50"/>
  <path d="M 70 10 C 110 100, 60 100, 70 190" fill="none"  stroke-width="50"/>
  <path d="M 80 10 C 120 30, 70 170, 80 190" fill="none"  stroke-width="50"/>
  <path d="M 90 10 C 130 110, 80 90, 90 190" fill="none"  stroke-width="50"/>
  <path d="M 100 10 C 140 20, 90 180, 100 190" fill="none"  stroke-width="50"/>
  <path d="M 110 10 C 150 120, 100 80, 110 190" fill="none"  stroke-width="50"/>
  <path d="M 120 10 C 160 10, 110 190, 120 190" fill="none"  stroke-width="50"/>
  <path d="M 130 10 C 170 130, 120 70, 130 190" fill="none"  stroke-width="50"/>
  <path d="M 140 10 C 180 0, 130 200, 140 190" fill="none"  stroke-width="50"/>
  <path d="M 150 10 C 190 140, 140 60, 150 190" fill="none"  stroke-width="50"/>
  <path d="M 160 10 C 200 -10, 150 210, 160 190" fill="none"  stroke-width="50"/>
  <path d="M 170 10 C 210 150, 160 50, 170 190" fill="none"  stroke-width="50"/>
  <path d="M 180 10 C 220 -20, 170 220, 180 190" fill="none"  stroke-width="50"/>
  <path d="M 190 10 C 230 160, 180 40, 190 190" fill="none"  stroke-width="50"/>
  <path d="M 200 10 C 240 -30, 190 230, 200 190" fill="none"  stroke-width="50"/>
</svg>
